<svg xmlns="http://www.w3.org/2000/svg" viewBox="0 0 22.02 22.02"><g id="Слой_2" data-name="Слой 2"><g id="Layer_3" data-name="Layer 3"><path d="M11 0a11 11 0 1011 11A11 11 0 0011 0z" fill="#ffc600"/><path d="M17 9.49a3 3 0 00-2.19.93L14 9.64l.06-1v-.1a5.82 5.82 0 00.29-.54l.16-.06a.78.78 0 00.32-.55.39.39 0 00-.13-.39.63.63 0 00-.31-.2l-.57-.11-2.28-1.24c-1-.5-1.69-.82-2.12-1s.53.2.76-.19c.06-.1.07-.14.12-.23.1 0 .19 0 .16-.13a1.31 1.31 0 01.06-.43.61.61 0 00.48-.41c.25-.69-1-1.23-1.87-1-.64.21-.77.45-.77.45a3.94 3.94 0 00.28.29 1.7 1.7 0 00-.17.59 1.71 1.71 0 01-.1.3 3.49 3.49 0 01-.33.36 7.06 7.06 0 00-.83.67 3.54 3.54 0 00-.53.64c-.74 1.31-1.35 2.57-1.35 2.57a2.38 2.38 0 000 1.9 3.85 3.85 0 001.42 1 14 14 0 011.91 1.14 11.71 11.71 0 00.18 1.45h-.36a3.36 3.36 0 103.34 3.35h.23a1 1 0 001-1 1 1 0 00-.41-.82c.26-.37.6-.84.68-.94s0-.23 0-.23-.19-.19-.33-.11l.94-3.34.61.54a3.29 3.29 0 00-.7 2 3.35 3.35 0 003.34 3.35 3.25 3.25 0 003.23-3.34A3.36 3.36 0 0017 9.49zm-8.58 10a2.76 2.76 0 010-5.52A2.26 2.26 0 019 14l.1.22.07.13-.65 1.79h-.09a.57.57 0 00-.56.57.57.57 0 101.13 0l1-.31c0 .17.11.34.33.29s.55-.14.88-.24a2.45 2.45 0 010 .27 2.76 2.76 0 01-2.78 2.76zm1-4.58L9.88 16l-1 .34zm1-.13a2.67 2.67 0 01.6.91 1.25 1.25 0 01-.54-.14s-.08-.32-.11-.78zm.91.21a3.41 3.41 0 00-1-1v-.41a13.18 13.18 0 011.3 1.19.87.87 0 00-.35.23zm1.07-.91a1.56 1.56 0 01-.32.11l-.92-1.61 2.3-2.24zm1.08-4.35l-2.54 2.47-.77-1.34a1.76 1.76 0 00-.61-.74A15.75 15.75 0 018 8.71l.7-1.55 1.36.84s2.24 1 2.47 1.08l.25.08a.26.26 0 000 .31.23.23 0 00.2.1.27.27 0 00.15-.05.16.16 0 00.12.08.29.29 0 00.16 0zm0-1.23h-.78l-1.8-1.08C10.33 7 9.28 6.15 9.28 6.15l.29-.46s1.33.44 1.8.68 2.32 1 2.32 1a.7.7 0 00.2.39 5.19 5.19 0 01-.47.73zm3.7 7.11a2.76 2.76 0 01-2.19-4.41l1.66 1.47a.48.48 0 000 .18.57.57 0 10.56-.57.51.51 0 00-.17 0l-1.68-1.49a2.75 2.75 0 111.85 4.79z" fill="#281900"/></g></g></svg>